<?xml version="1.0" encoding="iso-8859-1"?>
<!-- Generator: Adobe Illustrator 19.0.0, SVG Export Plug-In . SVG Version: 6.00 Build 0)  -->
<svg version="1.1" id="Layer_1" xmlns="http://www.w3.org/2000/svg" xmlns:xlink="http://www.w3.org/1999/xlink" x="0px" y="0px"
	 viewBox="0 0 512 512" style="enable-background:new 0 0 512 512;" xml:space="preserve">
<circle style="fill:#FF5B62;" cx="256" cy="256" r="256"/>
<ellipse style="fill:#ED4C54;" cx="256" cy="421.646" rx="182.284" ry="14.371"/>
<path style="fill:#666666;" d="M65.982,67.223h380.037c12.486,0,22.702,10.216,22.702,22.702v234.107H43.282V89.924
	c0-12.486,10.216-22.702,22.702-22.702H65.982z"/>
<path style="fill:#DCE3DB;" d="M58.694,308.617h394.609V89.924c0-3.979-3.309-7.288-7.285-7.288H65.982
	c-3.977,0-7.285,3.309-7.285,7.288v218.693H58.694z"/>
<path style="fill:#FFFFFF;" d="M468.718,324.031v24.827c0,12.488-11.26,22.702-25.024,22.702H68.307
	c-13.764,0-25.024-10.214-25.024-22.702v-24.827H468.72H468.718z"/>
<circle style="fill:#B6B6B8;" cx="256" cy="346.803" r="7.816"/>
<path style="fill:#C2C2C4;" d="M305.066,407.273l36.095,11.566H170.836l29.123-11.566v-35.713h105.105v35.713H305.066z"/>
<path style="fill:#ECF0F1;" d="M199.961,407.273h105.106l36.095,11.566v4.98h-85.16h-85.164v-4.98L199.961,407.273z"/>
<path style="fill:#919191;" d="M199.961,371.559h105.106v36.321L199.961,371.559z"/>
<path style="fill:#FFFFFF;" d="M149.563,108.345H362.44h31.687c3.841,0,6.981,3.144,6.981,6.981v41.546v151.743H110.889
	l-0.002-0.002V156.872v-41.548c0-3.841,3.142-6.981,6.981-6.981h31.69L149.563,108.345z"/>
<path style="fill:#828282;" d="M117.873,108.345h276.256c3.841,0,6.981,3.142,6.981,6.981v13.962H110.891v-13.962
	C110.891,111.484,114.033,108.345,117.873,108.345z"/>
<path style="fill:#FFFFFF;" d="M240.095,115.577h140.19c1.033,0,1.876,0.843,1.876,1.876v3.479c0,1.033-0.843,1.876-1.876,1.876
	h-140.19c-1.033,0-1.876-0.843-1.876-1.876v-3.479C238.219,116.421,239.063,115.577,240.095,115.577z"/>
<path style="fill:#21D0C3;" d="M124.818,114.331c2.219,0,4.019,1.798,4.019,4.019c0,2.221-1.8,4.019-4.019,4.019
	c-2.223,0-4.023-1.798-4.023-4.019C120.795,116.127,122.596,114.331,124.818,114.331z"/>
<path style="fill:#FAD24D;" d="M140.685,114.331c2.223,0,4.019,1.798,4.019,4.019c0,2.221-1.798,4.019-4.019,4.019
	c-2.221,0-4.019-1.798-4.019-4.019C136.666,116.127,138.467,114.331,140.685,114.331z"/>
<path style="fill:#FF5B62;" d="M156.554,114.331c2.219,0,4.019,1.798,4.019,4.019c0,2.221-1.8,4.019-4.019,4.019
	c-2.223,0-4.023-1.798-4.023-4.019C152.531,116.127,154.332,114.331,156.554,114.331z"/>
<rect x="129.816" y="138.789" style="fill:#DCE3DB;" width="210.569" height="121.912"/>
<ellipse style="fill:#FF5B62;" cx="235.101" cy="199.75" rx="23.005" ry="22.954"/>
<rect x="138.529" y="246.898" style="fill:#FFFFFF;" width="193.143" height="4.301"/>
<rect x="138.529" y="246.898" style="fill:#FF5B62;" width="118.229" height="4.301"/>
<path style="fill:#ED4C54;" d="M228.302,186.663l17.08,13.525l-17.08,13.523V186.663z"/>
<path style="fill:#FFFFFF;" d="M228.127,185.779l17.078,13.525l-17.078,13.523V185.779z"/>
<rect x="131.613" y="266.35" style="fill:#21D0C3;" width="64.324" height="5.849"/>
<g>
	<rect x="133.948" y="277.847" style="fill:#DCE3DB;" width="171.535" height="1.949"/>
	<rect x="133.948" y="283.796" style="fill:#DCE3DB;" width="171.535" height="1.949"/>
	<rect x="133.948" y="289.734" style="fill:#DCE3DB;" width="80.124" height="1.949"/>
	<rect x="348.759" y="138.789" style="fill:#DCE3DB;" width="38.5" height="27.207"/>
	<rect x="348.759" y="178.941" style="fill:#DCE3DB;" width="38.5" height="27.207"/>
	<rect x="348.759" y="219.102" style="fill:#DCE3DB;" width="38.5" height="27.207"/>
	<rect x="348.759" y="259.254" style="fill:#DCE3DB;" width="38.5" height="27.207"/>
</g>
<g>
	<path style="fill:#FFFFFF;" d="M364.574,146.956l6.868,5.437l-6.868,5.44V146.956z"/>
	<path style="fill:#FFFFFF;" d="M364.574,187.11l6.868,5.437l-6.868,5.44V187.11z"/>
	<path style="fill:#FFFFFF;" d="M364.574,227.263l6.868,5.437l-6.868,5.44V227.263z"/>
	<path style="fill:#FFFFFF;" d="M364.574,267.42l6.868,5.437l-6.868,5.44V267.42z"/>
</g>
<g>
</g>
<g>
</g>
<g>
</g>
<g>
</g>
<g>
</g>
<g>
</g>
<g>
</g>
<g>
</g>
<g>
</g>
<g>
</g>
<g>
</g>
<g>
</g>
<g>
</g>
<g>
</g>
<g>
</g>
</svg>
