<?xml version="1.0" encoding="iso-8859-1"?>
<!-- Generator: Adobe Illustrator 19.0.0, SVG Export Plug-In . SVG Version: 6.00 Build 0)  -->
<svg version="1.1" id="Layer_1" xmlns="http://www.w3.org/2000/svg" xmlns:xlink="http://www.w3.org/1999/xlink" x="0px" y="0px"
	 viewBox="0 0 512 512" style="enable-background:new 0 0 512 512;" xml:space="preserve">
<circle style="fill:#ff79c6	;" cx="256" cy="256" r="256"/>
<path style="fill:#44475a;" d="M163.916,73.863h184.169c2.906,0,5.263,2.356,5.263,5.263v353.749c0,2.906-2.356,5.263-5.263,5.263
	H163.916c-2.906,0-5.263-2.356-5.263-5.263V79.125C158.652,76.219,161.009,73.863,163.916,73.863z"/>
<path style="fill:#DCE3DB;" d="M171.988,123.022h168.025c2.258,0,4.088,1.83,4.088,4.088v257.779c0,2.258-1.83,4.088-4.088,4.088
	H171.988c-2.258,0-4.088-1.83-4.088-4.088V127.11C167.9,124.852,169.73,123.022,171.988,123.022z"/>
<g>
	<path style="fill:#f8f8f2	;" d="M211.78,96.352h88.433c2.031,0,3.678,1.647,3.678,3.678v0.001c0,2.031-1.647,3.678-3.678,3.678
		H211.78c-2.031,0-3.678-1.647-3.678-3.678v-0.001C208.103,97.999,209.749,96.352,211.78,96.352z"/>
	<circle style="fill:#f8f8f2	;" cx="255.271" cy="414.65" r="12.214"/>
	<circle style="fill:#f8f8f2	;" cx="182.903" cy="100.344" r="4.173"/>
</g>
<g>
	
</g>

<g>
	
</g>
<g>
</g>
<g>
</g>
<g>
</g>
<g>
</g>
<g>
</g>
<g>
</g>
<g>
</g>
<g>
</g>
<g>
</g>
<g>
</g>
<g>
</g>
<g>
</g>
<g>
</g>
<g>
</g>
<g>
</g>
</svg>
